<svg width="1357" height="1082" viewBox="0 0 1357 1082" fill="none" xmlns="http://www.w3.org/2000/svg">
<path fill-rule="evenodd" clip-rule="evenodd" d="M151.631 552.954C170.656 538.967 192.385 532.052 218.788 532.052C237.653 532.052 258.908 535.586 283.249 542.594C299.104 547.16 313.523 551.042 326.531 554.502C323.414 553.772 320.215 553.028 316.927 552.264C303.138 549.059 287.508 545.425 269.986 540.933C153.37 511.037 125.867 570.456 75.9386 678.322L75.936 678.328C73.428 683.747 70.862 689.29 68.225 694.952C38.751 758.231 24.609 794.711 23.961 830.879C23.302 867.617 36.212 903.19 71.594 962.132C106.985 1021.09 131.784 1048.32 163.095 1062.62C164.057 1063.05 165.025 1063.48 166 1063.9C156.27 1061.42 147.439 1058.27 139.084 1054.26C106.331 1038.55 81.2043 1010.28 46.3703 949.947C11.5363 889.614 -0.384725 853.717 2.38627 817.498C5.11827 781.785 22.4683 746.285 57.9123 684.895C61.0973 679.378 64.1983 673.976 67.2293 668.695L67.2333 668.688C97.0204 616.796 120.548 575.808 151.631 552.954ZM186.138 1067.89C184.393 1067.63 182.676 1067.35 180.987 1067.06C175.023 1065.36 169.38 1063.29 163.925 1060.8C133.027 1046.69 108.466 1019.67 73.309 961.103C38.142 902.519 25.309 867.235 25.96 830.916C26.602 795.107 40.685 758.815 70.038 695.796C72.551 690.401 74.9986 685.113 77.3939 679.939L77.751 679.168L77.7532 679.163C102.404 625.907 121.875 583.843 149.231 559.53C167.549 543.248 189.296 535.271 216.819 535.271C232.386 535.271 249.804 537.824 269.489 542.871C284.195 546.64 297.565 549.805 309.633 552.62C306.836 552.062 303.968 551.495 301.024 550.913L301.021 550.912L301.018 550.912L300.965 550.901L300.964 550.901C288.141 548.367 273.61 545.495 257.3 541.858C148.495 517.596 126.33 578.271 86.0918 688.42L86.0878 688.431L86.0724 688.473C84.0553 693.994 81.9924 699.64 79.8708 705.409C56.1058 770.013 45.0238 807.118 46.3208 843.253C47.6378 879.957 61.3588 914.852 96.9448 972C132.486 1029.08 156.681 1055.09 186.138 1067.89ZM202.736 1069.89C199.951 1069.63 197.237 1069.34 194.588 1069.02C192.044 1068.15 189.549 1067.18 187.088 1066.12C158.351 1053.69 133.553 1027.01 98.6428 970.944C63.2618 914.124 49.6228 879.497 48.3198 843.182C47.0348 807.38 58.0758 770.453 81.7478 706.099C83.6883 700.823 85.579 695.65 87.4312 690.582L87.4375 690.565L87.4453 690.544L87.9668 689.117C107.829 634.745 123.517 591.8 147.375 566.206C172.358 539.403 206.126 532.494 256.864 543.81C270.513 546.853 282.912 549.361 294.107 551.583C291.576 551.172 288.983 550.755 286.322 550.328L286.251 550.316L286.25 550.316L286.249 550.316L286.248 550.316C274.342 548.403 260.851 546.235 245.688 543.391C144.349 524.382 127.156 586.061 95.9445 698.03L95.942 698.039C94.375 703.661 92.772 709.412 91.121 715.287C72.671 780.939 64.432 818.521 67.513 854.531C70.603 890.64 85.53 925.996 120.753 980.636C154.235 1032.57 177.086 1057.62 202.736 1069.89ZM218.563 1071.09C215.254 1070.9 212.039 1070.68 208.91 1070.43C208.822 1070.39 208.734 1070.36 208.646 1070.32C181.609 1059.3 157.437 1033.85 122.434 979.552C86.95 924.508 72.605 890.577 69.506 854.362C66.451 818.657 74.663 781.243 93.047 715.828C94.5841 710.356 96.0796 704.993 97.544 699.741L97.869 698.576L97.8706 698.57C113.273 643.315 125.439 599.67 146.018 572.962C162.141 552.037 183.365 542.01 212.819 542.01C222.688 542.01 233.486 543.137 245.319 545.357C257.955 547.727 269.425 549.627 279.786 551.301C277.509 551.022 275.178 550.739 272.789 550.45L272.788 550.45L272.787 550.45L272.786 550.45C261.732 549.112 249.202 547.595 235.098 545.481C140.894 531.358 128.323 593.794 105.504 707.13L105.501 707.144L105.454 707.379L105.452 707.387C104.322 713.002 103.166 718.742 101.973 724.607C88.4603 791.047 82.8583 828.968 87.5733 864.77C92.3003 900.668 107.862 935.25 143.079 988.115C174.464 1035.23 196.035 1059.2 218.563 1071.09ZM234.102 1071.81C230.524 1071.69 227.047 1071.54 223.665 1071.37C200.117 1060.46 177.432 1036.07 144.743 987.005C109.257 933.737 94.3003 900.537 89.5563 864.508C85.8283 836.207 87.0303 808.114 103.933 725.005C105.143 719.055 106.316 713.232 107.462 707.539C118.722 651.612 127.616 607.437 145.128 579.771C163.422 550.87 191.079 540.908 234.801 547.458C246.509 549.213 257.127 550.557 266.718 551.728C264.646 551.561 262.525 551.394 260.352 551.223L260.35 551.223L260.332 551.221C250.111 550.418 238.528 549.507 225.468 548.075C138.08 538.499 129.798 601.463 114.763 715.767L114.761 715.781L114.714 716.141C113.974 721.764 113.218 727.513 112.434 733.385C103.497 800.378 100.336 838.51 106.538 874.024C112.759 909.636 128.864 943.415 163.981 994.504C193.525 1037.49 213.962 1060.3 234.102 1071.81ZM288.757 1072.47C286.435 1072.47 284.077 1072.48 281.684 1072.48C265.861 1072.48 251.605 1072.34 238.647 1071.96C217.724 1061.26 196.327 1038.03 165.629 993.371C130.236 941.881 114.755 909.441 108.509 873.68C103.602 845.589 103.235 817.47 114.416 733.65C115.202 727.763 115.96 722 116.702 716.363L116.702 716.362L116.744 716.042C124.162 659.642 130.022 615.094 144.667 586.615C157.815 561.046 178.052 549.133 209.223 549.133C214.272 549.133 219.611 549.445 225.25 550.064C238.299 551.494 249.867 552.404 260.079 553.208L260.079 553.208L260.08 553.208L260.194 553.217L260.195 553.217C319.721 557.899 339.774 559.476 397.121 642.904C433.124 695.281 451.952 726.216 461.574 760.353C471.339 794.993 471.713 832.283 462.954 897.942C454.314 962.708 444.309 996.352 427.271 1017.94C410.306 1039.43 386.003 1050.04 341.211 1064.4C339.55 1064.93 337.915 1065.45 336.306 1065.96C334.704 1066.35 333.078 1066.75 331.426 1067.15C329.609 1067.59 327.821 1068.02 326.061 1068.44C324.281 1068.75 322.473 1069.07 320.638 1069.38C318.631 1069.73 316.657 1070.07 314.714 1070.4C312.769 1070.62 310.794 1070.84 308.79 1071.06C306.568 1071.3 304.383 1071.54 302.233 1071.76C300.129 1071.88 297.993 1072 295.825 1072.11C293.43 1072.23 291.075 1072.35 288.757 1072.47ZM315.937 1074.18C366.385 1073.14 398.155 1069.01 425.148 1056.07C458.307 1040.16 483.67 1011.67 518.729 950.947C553.789 890.223 565.78 854.013 562.975 817.344C560.213 781.248 542.785 745.552 507.187 683.895C450.238 585.255 420.977 577.491 334.119 554.447L334.063 554.433C319.289 550.512 302.547 546.07 283.802 540.672C159.031 504.747 125.808 562.625 65.4972 667.695L65.4953 667.698C62.4643 672.979 59.3643 678.38 56.1793 683.895C20.5813 745.552 3.15427 781.247 0.392275 817.344C-2.41373 854.013 9.57828 890.223 44.6373 950.947C79.6973 1011.67 105.06 1040.16 138.219 1056.07C150.812 1062.11 164.443 1066.23 180.526 1069.01C187.432 1070.97 194.756 1072.45 202.698 1073.52C209.14 1075.14 215.939 1076.26 223.281 1076.95C229.28 1078.26 235.578 1079.05 242.352 1079.38C247.955 1080.41 253.807 1080.89 260.074 1080.89C260.179 1080.89 260.283 1080.89 260.388 1080.89C264.058 1081.4 267.804 1081.64 271.638 1081.64C285.104 1081.64 299.665 1078.71 315.937 1074.18ZM334.133 1071.63C376.56 1068.11 403.888 1062.33 426.837 1048.79C456.483 1031.31 478.299 1001.63 507.332 939.296C536.359 876.978 545.48 840.25 540.985 803.783C536.56 767.882 518.682 733.08 482.755 673.227C442.816 606.692 417.448 583.315 378.516 568.927C432.36 585.79 460.044 606.238 505.455 684.895C540.898 746.285 558.248 781.786 560.98 817.498C563.752 853.717 551.831 889.614 516.997 949.947C482.163 1010.28 457.035 1038.55 424.283 1054.26C400.987 1065.44 373.983 1069.97 334.133 1071.63ZM428.016 1041.44C407.6 1056.09 382.749 1063.18 343.863 1068.74C380.421 1065.17 405.003 1059.35 425.82 1047.07C455.076 1029.81 476.677 1000.37 505.52 938.453C534.369 876.513 543.444 840.08 538.999 804.028C534.618 768.485 516.82 733.862 481.04 674.256C435.333 598.11 408.855 578.922 358.787 564.691C395.161 577.206 419.675 599.388 459.75 663.747C495.888 721.782 514.132 755.671 520.076 791.3C526.111 827.485 519.655 864.591 496.252 928.209C472.84 991.855 454.346 1022.54 428.016 1041.44ZM352.919 1065.35C388.296 1057.93 410.736 1049.65 428.72 1034.04C451.926 1013.9 467.313 982.359 485.49 917.676C503.657 853.032 507.648 815.677 500.212 779.846C492.889 744.561 474.356 711.601 438.12 655.392C398.011 593.173 374.336 572.153 340.365 561.382C386.878 573.179 412.189 591.151 458.053 664.805C494.048 722.611 512.215 756.333 518.103 791.629C524.075 827.433 517.644 864.263 494.375 927.518C471.415 989.934 452.483 1021.42 426.85 1039.82C408.417 1053.04 386.199 1060.03 352.919 1065.35ZM428.984 1026.61C412.586 1043.79 390.345 1053.24 362.031 1061.3C391.662 1054.45 411.39 1046.43 427.409 1032.53C449.992 1012.93 465.736 980.573 483.565 917.135C501.636 852.834 505.617 815.735 498.253 780.253C490.995 745.278 472.537 712.473 436.439 656.476C390.582 585.34 366.403 568.513 323.293 558.961C354.956 568.117 377.801 588.026 417.811 648.088C454.041 702.473 472.792 734.492 481.364 769.366C490.067 804.777 488.356 842.264 475.051 907.681C461.737 973.144 449.251 1005.38 428.984 1026.61ZM369.222 1057.02C394.773 1047.61 414.686 1037.11 428.842 1019.17C446.348 996.997 456.132 964.211 464.936 898.205C473.735 832.249 473.346 794.74 463.499 759.81C458.652 742.614 451.176 725.402 439.969 705.64C429.397 686.997 415.853 666.625 398.769 641.771C358.915 583.79 336.881 564.972 307.361 557.328C347.307 564.805 370.392 580.511 416.147 649.196C452.245 703.384 470.921 735.259 479.422 769.844C488.048 804.936 486.332 842.186 473.092 907.283C460.03 971.499 447.258 1004.57 427.537 1025.23C413.596 1039.84 395.957 1048.78 369.222 1057.02Z" fill="url(#paint0_linear_0_32)"/>
<path fill-rule="evenodd" clip-rule="evenodd" d="M943.999 -223.518L959.203 -231.944L1065.29 -168.498L1082.06 -158.381L1089.43 -153.923L1098.39 -148.49C1107.68 -142.842 1117.5 -136.758 1127.07 -130.232C1128.42 -129.315 1129.76 -128.388 1131.1 -127.451C1136.57 -123.582 1141.83 -119.492 1146.84 -115.208C1151.84 -110.929 1156.6 -106.454 1161.08 -101.812C1169.97 -92.5706 1178.55 -82.0284 1187.32 -69.5819C1192.7 -61.9497 1198.05 -54.0037 1203.27 -46.1646L1207.16 -40.312C1208.65 -38.084 1210.13 -35.8551 1211.61 -33.63L1213.04 -31.4991C1221.58 -18.8373 1229.55 -8.38971 1237.34 0.384338C1246.54 10.7332 1256.54 19.2489 1267.07 25.7159L1268.18 26.3883C1279.13 32.9339 1291.77 37.9372 1305.76 41.2587C1318.02 44.1711 1331.48 46.2707 1348.13 47.8654L1362.67 49.2466C1372.3 50.1686 1382.08 51.1504 1391.61 52.3314C1406.83 54.2179 1420.28 56.8655 1432.74 60.4223C1445.23 64.0063 1457.71 68.9311 1469.83 75.0554C1480.45 80.4646 1490.84 86.3817 1500.62 92.1009L1504.31 94.2707C1514.55 100.304 1524.76 106.355 1534.95 112.4L1641.51 176.115L1641.21 193.455L1530.32 127.136C1525.46 124.251 1520.59 121.366 1515.72 118.482L1504.27 111.707L1496.53 107.137L1493.95 105.62C1482.43 98.8816 1472.4 93.2656 1461.82 88.1398C1449.53 82.2191 1436.67 77.6642 1423.6 74.6012C1410.98 71.6428 1397.08 69.5595 1381.11 68.2332C1373.87 67.6317 1366.49 67.1185 1359.21 66.6358L1345.42 65.7294L1336.75 65.1451C1334.71 65.0023 1332.71 64.8468 1330.74 64.6811C1316.94 63.5155 1304.93 61.7761 1294.19 59.3911C1280.66 56.3885 1268.44 51.7338 1257.87 45.5503L1256.83 44.9343C1246.14 38.5118 1236.05 29.8394 1226.83 19.1562C1218.64 9.66342 1210.44 -1.6507 1201.75 -15.4332C1199.84 -18.4664 1197.93 -21.5113 1196.03 -24.5593L1189.51 -35.0254C1185.81 -40.9507 1182.04 -46.9471 1178.27 -52.7804C1169.64 -66.1254 1161.34 -77.3178 1152.89 -86.9977C1144.13 -97.0377 1134.2 -106.182 1123.36 -114.176C1112.64 -122.029 1101.32 -129.099 1090.7 -135.57C1082.58 -140.501 1074.47 -145.401 1066.37 -150.286L1057.53 -155.618L943.999 -223.518ZM976.422 -241.497L1074.02 -183.126C1082.29 -178.146 1090.57 -173.156 1098.86 -168.142L1107.15 -163.119C1117.08 -157.088 1128.75 -149.901 1140.01 -142.323C1151.18 -134.77 1161.53 -126.556 1170.77 -117.908C1180.17 -109.089 1189.43 -98.9593 1198.3 -87.7994C1205.7 -78.4825 1213 -68.6149 1220.1 -58.9099L1223.78 -53.8718C1233.51 -40.5598 1241.94 -30.1927 1250.34 -21.2456C1259.7 -11.2649 1269.76 -2.95087 1280.26 3.48712L1281.46 4.2171C1292.4 10.7547 1304.93 15.9304 1318.7 19.5995C1330.57 22.7597 1343.76 25.2999 1360.22 27.5959L1366.2 28.4315C1378.21 30.1165 1390.48 31.9015 1402.46 34.0939C1416.59 36.681 1430 40.1208 1442.31 44.3173C1454.57 48.5167 1466.47 53.7057 1478.7 60.1837C1490.74 66.5793 1502.3 73.2984 1513.01 79.6055L1522.03 84.9417C1526.84 87.7858 1531.65 90.6311 1536.45 93.4784L1545.65 98.9408L1580.08 119.529L1641.84 156.461L1641.53 173.799L1550.41 119.303L1549.41 118.704C1545.98 116.651 1542.55 114.603 1539.12 112.546C1531.62 108.098 1524.12 103.648 1516.61 99.2048L1505.26 92.5078L1501.62 90.3686C1491.82 84.6353 1481.4 78.7011 1470.73 73.2671C1458.5 67.0871 1445.9 62.1179 1433.28 58.4948C1420.72 54.9096 1407.17 52.2423 1391.85 50.3427C1381.11 49.0111 1370.06 47.9337 1359.26 46.9095L1348.31 45.8715C1331.76 44.2851 1318.39 42.2003 1306.22 39.3087C1292.81 36.1208 1280.67 31.3776 1270.11 25.2012L1269.02 24.555C1258.31 18.1252 1248.16 9.54782 1238.85 -0.939911C1230.66 -10.1559 1222.3 -21.2105 1213.28 -34.7353L1211.06 -38.0742L1208.84 -41.4154C1202.38 -51.1263 1195.71 -61.1682 1188.97 -70.7302C1180.13 -83.2568 1171.49 -93.8756 1162.53 -103.196C1158.25 -107.626 1153.72 -111.9 1148.96 -116.009C1143.65 -120.599 1138.07 -124.975 1132.25 -129.091C1130.89 -130.044 1129.52 -130.988 1128.15 -131.921C1118.5 -138.497 1108.69 -144.568 1099.44 -150.195L1098.1 -151.003C1093.1 -154.044 1088.09 -157.077 1083.08 -160.1L1066.27 -170.244L961.218 -233.069L976.422 -241.497ZM993.654 -251.049L1082.77 -197.756C1091.03 -192.777 1099.32 -187.789 1107.61 -182.778L1118.97 -175.904C1127.63 -170.636 1138.33 -164.054 1148.93 -157.183C1155.35 -152.993 1161.35 -148.792 1167.05 -144.514L1169.32 -142.801L1169.87 -142.372C1173.49 -139.585 1176.99 -136.762 1180.39 -133.879C1190.16 -125.58 1199.87 -116.186 1209.25 -105.958C1211.44 -103.567 1213.6 -101.154 1215.77 -98.6941L1217.4 -96.8392C1222.29 -91.2451 1227.25 -85.3757 1232.6 -78.9315L1236.99 -73.6312L1237.74 -72.7261C1247.51 -60.9701 1255.86 -51.7423 1263.9 -43.8143C1265.46 -42.2702 1267.04 -40.7775 1268.64 -39.3169L1269.83 -38.2271C1270.38 -37.729 1270.93 -37.2175 1271.49 -36.7281L1272.4 -35.9461C1279.43 -29.8181 1286.69 -24.4357 1294.11 -19.894L1295.43 -19.0932C1306.35 -12.5661 1318.72 -7.15335 1332.2 -3.00381C1334.32 -2.34991 1336.5 -1.70972 1338.74 -1.07703L1340.52 -0.579132C1349.5 1.90088 1359.53 4.2446 1371.37 6.63882L1372.56 6.87842C1385.67 9.50739 1399.68 12.4199 1413.28 15.8947C1414.97 16.33 1416.65 16.7762 1418.32 17.2321C1430.03 20.4294 1441.28 24.1524 1451.83 28.3227C1463.55 32.9854 1475.24 38.5456 1487.57 45.3197C1494.01 48.8818 1500.48 52.5574 1506.84 56.2104L1515.7 61.304L1521.83 64.8332L1642.2 136.82L1641.89 154.156L1547.89 97.9364L1537.47 91.76C1532.67 88.9106 1527.86 86.0638 1523.04 83.2166C1520.04 81.4376 1517.04 79.6547 1514.03 77.878L1510.42 75.7574C1500.73 70.0671 1490.38 64.1146 1479.65 58.4112C1467.32 51.8851 1455.32 46.6533 1442.97 42.4213C1430.56 38.1915 1417.06 34.7273 1402.83 32.1223C1389.81 29.7397 1376.47 27.8403 1363.49 26.0276L1360.51 25.6106C1344.12 23.3267 1331.01 20.7996 1319.23 17.6606C1305.64 14.0413 1293.28 8.93768 1282.5 2.49506L1282.24 2.34259C1271.56 -4.07632 1261.32 -12.4727 1251.8 -22.618C1243.87 -31.071 1235.9 -40.8096 1226.81 -53.1388L1225.33 -55.1504L1221.78 -60.0088C1214.65 -69.7595 1207.32 -79.6744 1199.87 -89.0486C1190.93 -100.292 1181.61 -110.493 1172.15 -119.372C1162.82 -128.093 1152.39 -136.374 1141.14 -143.986C1129.95 -151.52 1118.69 -158.458 1108.19 -164.834C1100.09 -169.75 1092 -174.637 1083.91 -179.511L1075.02 -184.868L978.452 -242.622L993.654 -251.049ZM995.678 -252.17L1010.88 -260.597L1124.72 -192.512L1129.5 -189.559L1140.11 -183.009C1145.98 -179.384 1151.93 -175.69 1157.8 -171.996C1169.81 -164.373 1180.31 -157.067 1189.88 -149.661C1199.9 -141.906 1210.02 -133.183 1219.97 -123.737L1221.65 -122.131C1230.86 -113.284 1239.65 -104.25 1246.67 -96.9237L1251.08 -92.3249C1258.48 -84.6218 1267.77 -75.2229 1277.52 -66.4557C1279.42 -64.7484 1281.33 -63.1034 1283.26 -61.4873C1291.37 -54.6638 1299.66 -48.6336 1308.02 -43.526L1309.52 -42.6127C1320.38 -36.1203 1332.56 -30.4255 1345.74 -25.6861C1358.15 -21.2183 1370.88 -17.4703 1381.2 -14.5753L1387.89 -12.7166C1402.31 -8.69315 1413.5 -5.32605 1423.86 -1.90723C1436.92 2.41406 1449.49 7.26889 1461.23 12.5223C1472.36 17.5323 1483.87 23.4153 1496.42 30.5077C1502.34 33.8736 1508.31 37.3175 1514.18 40.7165L1527.06 48.1809C1528.23 48.8602 1529.41 49.5386 1530.58 50.2154L1642.53 117.172L1642.23 134.507L1522.85 63.1072L1516.44 59.4223L1510.33 55.9007C1503.15 51.7733 1495.83 47.5986 1488.54 43.5685C1476.11 36.7408 1464.34 31.1461 1452.56 26.4622C1451.05 25.8629 1449.52 25.2723 1447.97 24.6924C1437.16 20.6253 1425.68 17.0207 1413.77 13.9577C1404.68 11.6331 1395.41 9.56482 1386.35 7.66162C1383.33 7.02689 1380.33 6.4093 1377.37 5.80798L1371.72 4.66693L1369.31 4.17462C1357.8 1.79858 1348.03 -0.531036 1339.3 -2.99762C1337.07 -3.62671 1334.9 -4.26553 1332.79 -4.91702C1319.45 -9.02515 1307.22 -14.3723 1296.45 -20.8096L1296.19 -20.9657C1285.52 -27.379 1275.13 -35.5435 1265.3 -45.2372L1264.13 -46.4016C1256.3 -54.2287 1248.1 -63.3602 1238.5 -74.9469L1235.88 -78.1105C1226.81 -89.0608 1218.94 -98.3325 1210.72 -107.31C1201.29 -117.596 1191.52 -127.048 1181.68 -135.403C1180 -136.828 1178.3 -138.237 1176.57 -139.635L1174.33 -141.426C1172.67 -142.744 1170.97 -144.051 1169.25 -145.352C1163.22 -149.92 1156.86 -154.396 1150.02 -158.86L1148.13 -160.081C1136.8 -167.381 1125.58 -174.238 1116.94 -179.47C1105.88 -186.174 1094.82 -192.83 1083.77 -199.488L995.678 -252.17ZM1028.11 -270.143L1133.46 -207.131L1140.4 -202.873L1147.34 -198.619C1153.77 -194.68 1160.21 -190.736 1166.64 -186.76L1168.86 -185.373C1180.6 -178.034 1190.3 -171.598 1199.23 -165.224C1209.6 -157.824 1220.07 -149.676 1230.37 -141.006L1232.12 -139.526C1242.03 -131.126 1251.55 -122.584 1259.06 -115.767L1262.94 -112.243C1270.7 -105.226 1280.42 -96.5955 1290.65 -88.2869C1300.98 -79.8915 1311.06 -72.724 1321.41 -66.4221L1322.93 -65.5052L1323.15 -65.3714C1334.11 -58.8201 1345.76 -52.9946 1358.78 -47.5619L1360.9 -46.6797C1372.61 -41.8583 1384.38 -37.5485 1393.9 -34.1584L1400.73 -31.7288C1410.51 -28.2336 1422.41 -23.8842 1434.14 -19.2113C1446.76 -14.1815 1458.99 -8.74188 1470.49 -3.04205L1472.36 -2.11115C1482.34 2.89645 1492.85 8.60379 1505.24 15.7429C1509.63 18.2848 1514.01 20.8367 1518.39 23.3918L1524.96 27.2259C1529.75 30.0237 1534.53 32.8207 1539.32 35.599L1642.88 97.5389L1642.58 114.868L1531.6 48.4925L1526.45 45.5166L1512.43 37.3866C1507.45 34.5068 1502.41 31.6094 1497.41 28.7646C1484.81 21.6421 1473.24 15.7324 1462.05 10.696C1450.25 5.41495 1437.62 0.535034 1424.49 -3.80756L1422.32 -4.52026C1410 -8.53052 1397.73 -12.0526 1387.84 -14.8079L1381.65 -16.5333C1371.34 -19.4249 1358.69 -23.1568 1346.42 -27.5687C1333.82 -32.1019 1322.14 -37.5155 1311.67 -43.6689L1310.19 -44.5496C1299.58 -50.9268 1289.04 -58.7963 1278.86 -67.9435C1269.11 -76.7162 1259.87 -86.0683 1252.51 -93.7253L1246.91 -99.5722C1239.66 -107.12 1230.7 -116.29 1221.35 -125.188C1211.35 -134.684 1201.18 -143.451 1191.11 -151.245C1181.52 -158.668 1170.98 -166.01 1158.87 -173.689C1152.03 -178.001 1145.06 -182.308 1138.26 -186.507L1135.35 -188.299C1132.16 -190.27 1128.97 -192.24 1125.76 -194.221L1012.91 -261.72L1028.11 -270.143ZM1045.33 -279.692L1175.6 -201.782C1178.29 -200.038 1180.99 -198.304 1183.68 -196.573L1187.73 -193.977C1194.54 -189.617 1201.58 -185.107 1208.44 -180.542C1218.31 -173.966 1228.39 -166.812 1238.43 -159.253L1240.44 -157.736C1250.01 -150.484 1259.44 -142.995 1267.25 -136.718L1275.09 -130.401C1283.08 -123.981 1292.89 -116.211 1302.95 -108.737C1314.16 -100.399 1324.96 -93.1385 1335.88 -86.6156C1346.83 -80.0645 1358.32 -73.9903 1371 -68.0464L1373.07 -67.0804C1383.42 -62.2705 1393.8 -57.7731 1402.53 -54.0654L1412.48 -49.8604C1424.93 -44.5794 1434.85 -40.2302 1444.12 -35.9834C1456.47 -30.3094 1468.41 -24.3867 1479.63 -18.3778C1485.08 -15.458 1490.56 -12.4315 1495.94 -9.43521L1507.75 -2.84558C1509.9 -1.64685 1512.05 -0.453827 1514.2 0.728577L1643.21 77.887L1642.91 95.2172L1540.34 33.8731L1533.29 29.7664L1526.24 25.6515C1521.8 23.0597 1517.36 20.4667 1512.92 17.8811L1506.24 14.0083L1503.93 12.6816C1491.73 5.69366 1481.33 0.100403 1471.39 -4.83502C1459.88 -10.5402 1447.6 -16.002 1434.89 -21.0706L1432.78 -21.9045C1421.57 -26.3299 1410.45 -30.3845 1401.27 -33.6644L1391.94 -36.9861C1382.36 -40.4214 1370.86 -44.6852 1359.55 -49.4081C1347.34 -54.5061 1335.88 -60.1927 1325.48 -66.3209L1323.74 -67.3541C1313.45 -73.5375 1303.44 -80.5677 1293.2 -88.8055L1291.91 -89.8416C1283.84 -96.4056 1275.39 -103.702 1264.86 -113.215L1257.52 -119.859C1249.99 -126.665 1240.89 -134.765 1231.66 -142.536C1221.29 -151.267 1210.78 -159.448 1200.4 -166.854L1198.71 -168.053C1189.65 -174.454 1179.74 -180.976 1167.7 -188.461C1163.41 -191.114 1159.12 -193.752 1154.83 -196.383L1148.39 -200.326C1143.76 -203.161 1139.14 -205.994 1134.51 -208.842L1030.13 -271.268L1045.33 -279.692ZM1640.84 213.075L1521.67 141.801L1513.64 137.046C1507.9 133.644 1502.16 130.242 1496.41 126.844L1487.78 121.751L1485.56 120.448C1475.82 114.745 1464.65 108.395 1452.93 102.97C1440.68 97.3637 1427.59 93.1868 1414.01 90.5531C1401.3 88.087 1387.16 86.4177 1370.78 85.4499C1365.64 85.1464 1360.42 84.8735 1355.27 84.6133L1342.57 83.9788C1337.07 83.7008 1331.5 83.407 1326.02 83.0758C1309.73 82.0933 1295.76 80.2868 1283.31 77.5559C1269.39 74.5013 1256.87 69.69 1246.11 63.258L1245.89 63.1282C1235.22 56.7124 1225.14 48.0308 1215.96 37.3222C1207.66 27.6486 1199.5 16.2614 1191.02 2.51163C1187.44 -3.29401 1183.84 -9.2457 1180.34 -15.0742L1175.08 -23.8007C1172.73 -27.7095 1170.34 -31.6531 1167.97 -35.5263C1159.45 -49.4104 1151.4 -61.0074 1143.35 -70.9801C1134.7 -81.6988 1124.99 -91.2248 1114.49 -99.2981C1103.86 -107.417 1092.58 -114.508 1081.96 -120.963C1074.5 -125.494 1067.04 -130 1059.59 -134.494L1048.79 -141.003L926.777 -213.977L941.968 -222.397L1056.49 -153.905L1057.24 -153.455C1068.02 -146.953 1078.83 -140.434 1089.65 -133.862L1093.01 -131.809C1102.59 -125.936 1112.61 -119.568 1122.17 -112.565C1132.87 -104.671 1142.7 -95.6263 1151.38 -85.6831C1159.75 -76.094 1167.99 -64.9763 1176.58 -51.6962C1180.37 -45.8304 1184.16 -39.7971 1187.89 -33.8346L1191.58 -27.9045C1194.4 -23.3853 1197.22 -18.8638 1200.05 -14.3674L1201.47 -12.1402C1209.69 0.726685 1217.5 11.4104 1225.31 20.4628C1234.41 31.0155 1244.36 39.6377 1254.9 46.1085L1255.98 46.7613C1266.93 53.3066 1279.64 58.213 1293.75 61.3435C1304.58 63.7474 1316.67 65.4994 1330.56 66.6725C1332.54 66.8402 1334.56 66.996 1336.62 67.14L1345.31 67.7267L1359.12 68.6343C1366.37 69.1156 1373.73 69.6269 1380.94 70.2252C1396.8 71.5438 1410.61 73.6117 1423.14 76.5478C1436.08 79.585 1448.8 84.0909 1460.94 89.9407C1471.81 95.2032 1482.16 101.029 1494.21 108.098L1499.1 110.979L1507.37 115.861L1516.31 121.156C1520.74 123.785 1525.11 126.38 1529.36 128.906L1641.15 195.763L1640.84 213.075ZM1640.72 222.039L1631.34 227.239L1512.93 156.421L1508.22 153.626C1501.75 149.787 1495.28 145.945 1488.79 142.108L1479.06 136.358C1468.79 130.304 1456.77 123.377 1444.07 117.77C1432.01 112.485 1418.74 108.6 1404.63 106.221C1391.95 104.083 1377.68 102.641 1360.99 101.809C1357.86 101.654 1354.73 101.507 1351.6 101.362L1339.27 100.793C1331.59 100.433 1323.8 100.041 1316.17 99.553C1300.09 98.524 1286.18 96.634 1273.62 93.778C1260.16 90.7075 1247.97 86.0172 1237.39 79.8315L1236.29 79.1787C1225.61 72.7588 1215.5 64.133 1206.26 53.54C1197.83 43.8876 1189.62 32.5861 1181.16 18.9908C1175.66 10.144 1170.18 0.964569 1164.89 -7.91437C1162.65 -11.6641 1160.42 -15.4106 1158.18 -19.1434C1149.64 -33.3501 1141.73 -45.1631 1133.98 -55.2572C1125.32 -66.5314 1115.79 -76.3559 1105.64 -84.4615C1095.23 -92.7163 1083.91 -99.8602 1073.23 -106.35C1065.46 -111.061 1057.7 -115.747 1049.95 -120.419L1040.05 -126.38L920.463 -197.902L920.683 -210.597L924.744 -212.849L1047.75 -139.283L1048.65 -138.741C1059.38 -132.27 1070.14 -125.781 1080.91 -119.248C1091.5 -112.802 1102.76 -105.731 1113.26 -97.7051C1123.63 -89.7297 1133.23 -80.3128 1141.78 -69.7163C1149.77 -59.8168 1157.78 -48.2903 1166.25 -34.4757C1168.62 -30.6108 1171 -26.6745 1173.35 -22.7725L1180.36 -11.1234C1183.31 -6.23038 1186.31 -1.28162 1189.31 3.56818C1197.86 17.4363 1206.08 28.9045 1214.43 38.6312C1223.52 49.2203 1233.47 57.8642 1244.02 64.3428L1245.07 64.9797C1256.02 71.5264 1268.74 76.4165 1282.87 79.5141C1295.42 82.2676 1309.49 84.0878 1325.88 85.0795C1332.45 85.4754 1339.15 85.8182 1345.71 86.1457L1355.12 86.6151C1360.28 86.8752 1365.51 87.1488 1370.65 87.4521C1386.95 88.4161 1401 90.0746 1413.62 92.5227C1427.06 95.1316 1440 99.2604 1452.08 104.794C1463.43 110.043 1474.15 116.061 1486.76 123.481C1498.04 130.13 1509.29 136.806 1520.52 143.471L1640.84 215.428L1640.72 222.039ZM1614.08 236.784L1504.16 171.041C1492.9 164.344 1481.62 157.642 1470.3 150.961L1467.79 149.48C1457.68 143.542 1446.87 137.457 1435.22 132.501C1423.26 127.452 1409.89 123.741 1395.47 121.474C1382.77 119.477 1368.88 118.128 1351.75 117.226L1337.08 116.463C1327.13 115.938 1317.02 115.364 1307.16 114.596C1291.34 113.365 1277.54 111.276 1264.99 108.209C1251.3 104.868 1238.88 99.8936 1228.05 93.4259L1227.81 93.2832C1217.08 86.8365 1206.92 78.3176 1197.59 67.961C1188.99 58.4014 1180.66 47.3024 1172.14 34.028C1165.97 24.4276 1159.89 14.4173 1153.98 4.63275L1148.94 -3.71295L1147.65 -5.83337C1139.76 -18.7761 1132.77 -29.2781 1125.84 -38.6089L1124.83 -39.9671C1116.13 -51.5589 1106.7 -61.5568 1096.8 -69.6834C1087.17 -77.5719 1076.91 -84.2073 1064.47 -91.7448C1053.39 -98.4513 1042.33 -105.115 1031.29 -111.757L920.104 -178.254L920.406 -195.592L1039.01 -124.662L1056.03 -114.397C1061.41 -111.153 1066.79 -107.901 1072.17 -104.638L1074.96 -102.94C1084.74 -96.9435 1094.95 -90.3745 1104.38 -82.8921C1114.4 -74.8916 1123.82 -65.1823 1132.37 -54.0346L1133.66 -52.346C1140.96 -42.6857 1148.43 -31.4623 1156.45 -18.11C1157.93 -15.6419 1159.41 -13.1671 1160.89 -10.6894L1163.1 -6.97137C1168.42 1.94373 1173.92 11.1622 1179.45 20.051C1187.97 33.741 1196.24 45.1266 1204.73 54.8581C1213.85 65.314 1223.82 73.8876 1234.36 80.3616L1235.47 81.0328C1246.43 87.5836 1259.11 92.5287 1273.16 95.731C1285.8 98.6111 1299.82 100.515 1316.03 101.553C1323.66 102.041 1331.44 102.433 1339.12 102.794L1346.75 103.146C1351.46 103.363 1356.17 103.578 1360.87 103.812L1363.62 103.954C1379.04 104.795 1392.37 106.186 1404.28 108.196C1418.23 110.548 1431.34 114.387 1443.25 119.606C1454.98 124.785 1466.16 131.118 1475.89 136.828L1478.03 138.086C1484.32 141.793 1490.59 145.509 1496.86 149.226L1511.88 158.137L1629.29 228.358L1614.08 236.784ZM1596.87 246.347L1461.63 165.462L1458.2 163.479C1448.55 157.909 1437.83 151.899 1426.45 147.171C1414.59 142.245 1401.2 138.577 1386.63 136.27L1384.87 135.998C1373.11 134.204 1360.13 132.865 1344.29 131.811L1334.72 131.184C1322.83 130.396 1310.71 129.538 1298.96 128.374C1283.43 126.835 1269.8 124.472 1257.29 121.15C1243.8 117.57 1231.45 112.458 1220.57 105.959L1220.31 105.804C1209.54 99.3319 1199.3 90.9477 1189.86 80.8811C1181.04 71.4721 1172.54 60.6447 1163.9 47.779C1157.09 37.6423 1150.49 27.1819 1144.08 16.9071L1140.26 10.7686C1131.23 -3.74405 1123.51 -15.1651 1115.98 -25.1729C1107.2 -36.8393 1097.8 -46.8791 1088.04 -55.0105C1077.53 -63.7705 1065.86 -71.0271 1055.74 -77.1421C1044.67 -83.8396 1033.6 -90.4937 1022.55 -97.137L919.766 -158.609L920.068 -175.94L1030.27 -110.035C1041.3 -103.395 1052.37 -96.7314 1063.44 -90.0266L1065.81 -88.5872C1077.12 -81.6789 1086.61 -75.44 1095.54 -68.1308C1105.32 -60.0897 1114.64 -50.2084 1123.23 -38.7585L1123.77 -38.0356L1124.31 -37.308C1131.56 -27.5305 1138.87 -16.4774 1147.22 -2.68439L1150.3 2.41437C1152.32 5.76312 1154.37 9.14859 1156.43 12.5416C1159.37 17.3719 1162.33 22.2201 1165.33 27.0162C1166.07 28.2028 1166.82 29.3688 1167.57 30.548L1169.49 33.5943L1170.46 35.1142C1179.03 48.4767 1187.43 59.6601 1196.11 69.3067C1205.3 79.513 1215.3 87.9624 1225.86 94.4393L1227.03 95.1509C1238.03 101.72 1250.64 106.77 1264.52 110.16C1277.18 113.253 1291.08 115.359 1307.01 116.598C1316.88 117.366 1327 117.941 1336.95 118.466L1351.65 119.232C1368.67 120.123 1382.49 121.466 1395.16 123.457C1409.42 125.7 1422.64 129.365 1434.44 134.35C1446.94 139.664 1458.51 146.324 1469.29 152.69C1480.6 159.371 1491.88 166.072 1503.14 172.768L1612.07 237.915L1596.87 246.347ZM1579.63 255.884L1452.89 180.082L1449.46 178.089C1439.82 172.491 1429.11 166.45 1417.75 161.711C1405.96 156.791 1392.61 153.046 1378.07 150.581L1376.44 150.308C1365.22 148.459 1352.66 146.948 1337.22 145.588L1334.94 145.39C1329.81 144.951 1324.73 144.509 1319.69 144.048L1317.01 143.801C1314.77 143.592 1312.54 143.377 1310.32 143.157C1308.39 142.965 1306.47 142.768 1304.55 142.565C1303.15 142.418 1301.75 142.267 1300.36 142.113C1298.73 141.931 1297.11 141.745 1295.48 141.553L1291.4 141.061C1276.16 139.153 1262.71 136.478 1250.29 132.883C1237.01 129.037 1224.74 123.778 1213.82 117.255C1202.9 110.719 1192.47 102.43 1182.83 92.5919C1173.81 83.3887 1165.13 72.8712 1156.3 60.4388C1155.09 58.7356 1153.89 57.0199 1152.69 55.2969C1146.78 46.8007 1140.97 38.0248 1135.4 29.4973L1130.74 22.3495C1124.49 12.8134 1118.92 4.69327 1113.67 -2.52167L1113.1 -3.29126C1111.17 -5.93152 1109.28 -8.44965 1107.41 -10.8722C1098.49 -22.4478 1089.05 -32.4069 1079.34 -40.4687C1069.36 -48.7522 1058.82 -55.4037 1047.06 -62.6313L919.423 -138.964L919.726 -156.293L1021.53 -95.4061C1032.57 -88.7715 1043.63 -82.1198 1054.71 -75.4214L1056.81 -74.148C1066.35 -68.3439 1077.07 -61.539 1086.76 -53.4655C1096.4 -45.4394 1105.69 -35.5128 1114.38 -23.961L1115.43 -22.567C1122.57 -12.974 1129.95 -1.98984 1138.56 11.8344L1142.4 18.0006C1148.84 28.3204 1155.45 38.8149 1162.24 48.9032C1170.95 61.8633 1179.51 72.773 1188.4 82.2567C1197.67 92.1516 1207.72 100.443 1218.29 106.924L1219.55 107.685C1230.58 114.279 1243.1 119.462 1256.77 123.091C1269.39 126.443 1283.12 128.824 1298.76 130.372C1311.76 131.661 1325.19 132.574 1338.28 133.432L1342.97 133.737L1346.5 133.975C1361.99 135.054 1374.72 136.424 1386.31 138.255C1400.71 140.531 1413.96 144.155 1425.68 149.027C1438.3 154.271 1450.17 161.143 1460.62 167.197L1594.83 247.466L1579.63 255.884ZM1562.43 265.443L1444.15 194.704L1439.56 192.025C1430.23 186.594 1419.94 180.809 1409.12 176.166C1397.28 171.085 1384.42 167.262 1369.79 164.477L1368.24 164.186C1356.83 162.065 1344.4 160.286 1328.33 158.474L1322.62 157.832C1310.64 156.476 1297.26 154.877 1284.37 152.886C1269.42 150.578 1256.17 147.577 1243.86 143.71C1230.79 139.607 1218.59 134.204 1207.62 127.647L1207.35 127.482L1206 126.643C1205.16 126.13 1204.33 125.619 1203.5 125.088C1195.76 120.114 1188.25 114.337 1181.11 107.851C1180.75 107.523 1180.38 107.207 1180.02 106.876L1179.78 106.644C1178.63 105.579 1177.49 104.499 1176.36 103.396C1167.15 94.4122 1158.27 84.2195 1149.23 72.2327L1147.72 70.2259C1140.45 60.5041 1133.36 50.4235 1125.18 38.5611L1123.09 35.5242C1113.83 22.1465 1106.39 12.0515 1099.11 2.98581C1089.87 -8.51559 1080.57 -18.0079 1070.69 -26.0331C1060.59 -34.2414 1049.61 -41.1109 1038.31 -48.01L919.085 -119.315L919.388 -136.651L1046.02 -60.9135L1049.88 -58.5379C1060.03 -52.2438 1069.29 -46.2116 1078.07 -38.922C1087.66 -30.9519 1097.01 -21.101 1105.84 -9.6427C1108.34 -6.38898 1110.89 -2.96313 1113.53 0.697662L1114.41 1.9267C1119.14 8.54675 1124.17 15.9427 1129.73 24.4695L1133.3 29.9359C1139.13 38.8687 1145.24 48.1157 1151.53 57.1354C1152.58 58.6353 1153.62 60.1259 1154.68 61.6042C1163.57 74.1213 1172.31 84.7171 1181.41 93.9985C1190.78 103.566 1200.89 111.695 1211.48 118.181L1212.8 118.979C1223.86 125.591 1236.29 130.917 1249.74 134.811C1262.26 138.436 1275.81 141.131 1291.15 143.052L1292.8 143.244C1295.24 143.542 1297.7 143.828 1300.17 144.103C1301.54 144.254 1302.9 144.402 1304.27 144.547C1306.23 144.754 1308.19 144.955 1310.16 145.15L1313.44 145.47L1318.16 145.917L1319.6 146.049C1323.37 146.393 1327.15 146.73 1330.96 147.062L1337.05 147.588C1353.17 149.007 1366.15 150.595 1377.74 152.561C1392.13 155.001 1405.33 158.702 1416.98 163.563C1429.61 168.833 1441.45 175.735 1451.88 181.82L1577.62 257.021L1562.43 265.443ZM1527.97 284.53L1426.67 223.951L1423.2 221.901C1420.91 220.549 1418.66 219.224 1416.42 217.923L1413.73 216.357L1412.16 215.448L1409.49 213.916C1403.75 210.643 1398.08 207.518 1392.26 204.503L1392.2 204.471C1379.64 199.054 1366.73 194.633 1353.8 191.331L1351.57 190.768C1341.33 188.217 1330.12 185.867 1315.9 183.291L1306.45 181.596C1304.91 181.319 1303.4 181.045 1301.9 180.772L1298.17 180.085L1295.65 179.616L1292.06 178.939L1290.27 178.595L1286.99 177.96L1285.04 177.575L1281.74 176.917L1279.96 176.551L1276.43 175.823C1275.48 175.624 1274.54 175.419 1273.59 175.215C1272.86 175.058 1272.12 174.903 1271.38 174.742C1257 171.598 1244.13 167.945 1232.05 163.579C1228.87 162.43 1225.73 161.213 1222.64 159.933C1213.47 156.13 1204.71 151.751 1196.51 146.866L1196.23 146.704C1186.31 140.724 1176.62 133.724 1167.44 125.81L1166.3 124.815C1165.69 124.285 1165.08 123.763 1164.48 123.225C1154.93 114.674 1145.66 105.122 1136.15 94.0225C1127.68 84.1367 1119.3 73.6845 1111.43 63.7385L1108.4 59.9052C1098.57 47.5034 1090.7 38.1457 1083.05 29.745C1074.14 19.9702 1064.29 10.7207 1053.73 2.21039C1043.87 -4.65332 1033.59 -11.0273 1024.38 -16.6165L1020.64 -18.8737L918.396 -80.0225L918.698 -97.3614L1028.54 -31.67L1031.9 -29.6289C1041.46 -23.7962 1051.46 -17.5315 1061.1 -10.5849C1071.3 -1.91437 1080.85 7.63214 1089.48 17.7895L1090.96 19.5398C1097.88 27.7786 1105.11 37.051 1114.02 49.1237L1115.31 50.8677C1123.39 61.8538 1132.09 73.5485 1140.99 84.6182C1150.31 96.2207 1159.45 106.158 1168.92 114.999C1178.82 124.246 1189.41 132.285 1200.42 138.898L1200.78 139.113C1211.91 145.763 1224.15 151.367 1237.18 155.768C1249.47 159.922 1262.62 163.274 1277.37 166.015C1290.09 168.377 1302.9 170.332 1318.05 172.503L1319.58 172.721C1336.68 175.166 1349.55 177.405 1361.3 179.978C1374.44 182.857 1387.46 186.87 1400 191.907C1411.57 197.686 1422.87 204.262 1434.38 211.05L1543.16 276.108L1527.97 284.53ZM1508.7 295.214L1493.51 303.635L1409.18 253.204C1398.89 247.048 1388.78 241.031 1378.51 235.227L1375.03 233.276C1363.27 227.457 1350.91 222.136 1338.27 217.446C1326.56 213.692 1314.21 210.129 1300.56 206.568L1292.3 204.427C1281.33 201.58 1270.14 198.628 1259.1 195.454C1245.18 191.455 1232.68 187.177 1220.88 182.378C1208.94 177.52 1197.5 171.885 1186.85 165.615L1184.97 164.498C1174.08 157.956 1163.41 150.381 1153.25 141.979C1143.43 133.873 1133.79 124.935 1123.76 114.654L1121.89 112.723C1114.08 104.676 1106.55 96.5789 1097.86 87.1841L1095.76 84.9038C1085.76 74.0851 1076.5 64.5476 1067.4 55.7177C1057.43 46.848 1047.05 38.5167 1036.51 30.9264C1026.22 24.2563 1015.6 17.8238 1005.49 11.7715L917.703 -40.7316L918.005 -58.061L1013.58 -0.896851C1024.87 5.87762 1034.51 11.8072 1043.98 18.1461C1054.22 25.9135 1064.31 34.5741 1073.96 43.8543L1075.73 45.7548C1083.45 54.0489 1091.49 63.1164 1100.22 73.3686L1106.1 80.2781C1114.04 89.5701 1121.12 97.7124 1128.45 105.735C1138.29 116.5 1147.8 125.802 1157.53 134.169C1162.63 138.553 1167.88 142.696 1173.23 146.576C1174.11 147.211 1174.99 147.829 1175.88 148.452L1177.18 149.374C1178.12 150.022 1179.06 150.651 1180 151.281L1181.28 152.146L1182.2 152.749L1183.14 153.349C1183.95 153.873 1184.75 154.399 1185.57 154.911L1186 155.179C1187.12 155.877 1188.23 156.57 1189.35 157.244L1189.81 157.515C1200.98 164.185 1213.06 170.033 1225.72 174.896C1237.76 179.523 1250.52 183.51 1264.73 187.084C1277.52 190.304 1290.76 193.224 1302.48 195.752L1305.37 196.375C1320.22 199.569 1333.41 202.729 1345.62 206.019C1358.53 210.242 1371.03 215.155 1382.78 220.622C1393.87 226.611 1404.68 232.995 1414.86 239.088L1508.7 295.214ZM1474.25 314.3L1459.05 322.726L1381.6 276.406C1373.38 271.5 1365.59 266.866 1357.74 262.263C1346.16 255.89 1334.23 249.887 1322.24 244.408C1310.45 239.497 1298.18 234.752 1284.73 229.898L1271.71 225.356C1263.38 222.444 1254.93 219.469 1246.63 216.455C1233.06 211.522 1220.93 206.621 1209.53 201.472C1197.33 195.953 1185.53 189.806 1174.48 183.204C1163.4 176.561 1152.44 169.137 1141.83 161.029C1131.9 153.441 1121.88 145.113 1111.2 135.57C1103.15 128.379 1095.06 120.974 1087.17 113.739L1081.52 108.552C1071.03 99.1151 1061.15 90.612 1051.28 82.5342C1040.94 74.6262 1030.15 66.9925 1019.19 59.8337L1016.2 58.0015C1005.71 51.5988 995.208 45.3175 985.846 39.7222L917.021 -1.43707L917.324 -18.7768L993.626 26.8555C1001.54 31.5854 1009.31 36.2534 1016.99 40.9668L1019.92 42.7713L1022.83 44.5815C1024.14 45.396 1025.46 46.2065 1026.77 47.0272C1037.38 54.2935 1047.93 62.2251 1058.08 70.5754C1067.66 79.0822 1077.48 88.3279 1087.29 98.0547L1096.49 107.192C1102.97 113.609 1109.57 120.115 1116.17 126.432L1117.2 127.409L1118.22 128.377C1126.86 136.567 1135.18 143.89 1143.49 150.625L1144.74 151.631C1145.28 152.068 1145.83 152.513 1146.37 152.946C1156.41 160.928 1166.85 168.246 1177.5 174.675L1179.03 175.59C1190.15 182.235 1202.09 188.309 1214.5 193.643C1226.14 198.643 1238.51 203.253 1252.32 207.737C1255.07 208.628 1257.83 209.51 1260.6 210.386C1262.08 210.853 1263.56 211.314 1265.05 211.776C1266.28 212.163 1267.52 212.553 1268.75 212.937C1272.16 213.993 1275.57 215.04 1278.95 216.076L1291.26 219.839C1304.58 223.917 1317.48 228.257 1329.57 232.729C1341.8 237.802 1353.88 243.454 1365.44 249.51C1375.44 255.245 1385.22 261.059 1395.84 267.405L1474.25 314.3ZM917.367 -21.0808L917.67 -38.4111L1002.3 12.2025C1012.93 18.5582 1024.24 25.3674 1035.38 32.581C1045.82 40.1011 1056.14 48.3893 1066.03 57.1869C1075.07 65.9584 1084.31 75.4694 1094.28 86.265L1098.85 91.2048C1106.22 99.1749 1114.25 107.784 1122.33 116.055C1132.41 126.39 1142.1 135.376 1151.96 143.526C1162.2 151.989 1172.95 159.619 1183.92 166.209L1184.43 166.515C1195.56 173.167 1207.57 179.128 1220.12 184.237C1231.99 189.065 1244.55 193.366 1258.54 197.38C1271.93 201.227 1285.96 204.86 1298.33 208.065L1301.5 208.891C1314.6 212.334 1326.45 215.765 1337.6 219.341C1350.15 223.993 1362.44 229.286 1374.09 235.05C1385.53 241.433 1396.73 248.092 1408.14 254.923L1491.48 304.763L1476.29 313.182L1392.89 263.309C1383.93 257.969 1375.87 253.2 1367.57 248.423L1366.4 247.754C1354.79 241.669 1342.66 235.991 1330.29 230.865C1318.13 226.367 1305.2 222.014 1291.84 217.924L1279.15 214.047C1275.93 213.06 1272.69 212.063 1269.44 211.055C1263.92 209.343 1258.39 207.603 1252.94 205.832C1239.18 201.367 1226.87 196.778 1215.29 191.802C1202.95 186.505 1191.1 180.472 1180.05 173.871C1169.03 167.296 1158.09 159.704 1147.62 151.382L1146.73 150.673L1145.85 149.958C1137.4 143.16 1128.96 135.765 1120.17 127.47L1118.43 125.823C1118.14 125.547 1117.85 125.269 1117.56 124.989C1110.94 118.656 1104.32 112.133 1097.83 105.698L1088.7 96.637C1078.86 86.8802 1069.01 77.6105 1059.38 69.0576C1049.15 60.6434 1038.56 52.6768 1027.87 45.3578L1026.52 44.5204C1017.21 38.6912 1007.79 33.005 998.197 27.2589L986.362 20.1796L917.367 -21.0808ZM918.358 -77.7154L1019.61 -17.1609L1023.34 -14.9094C1032.52 -9.33658 1042.77 -2.98523 1052.52 3.80817C1062.95 12.21 1072.72 21.3886 1081.57 31.0902L1082.58 32.2068C1089.69 40.0672 1097.09 48.8849 1106.2 60.3541L1111.56 67.1208C1118.94 76.4321 1126.74 86.1182 1134.63 95.3227C1144.2 106.491 1153.53 116.106 1163.14 124.713C1163.66 125.181 1164.2 125.634 1164.72 126.096C1165.47 126.751 1166.21 127.412 1166.96 128.056L1167.25 128.295C1175.67 135.469 1184.5 141.894 1193.58 147.441L1195.02 148.313L1195.48 148.585C1203.76 153.515 1212.6 157.938 1221.87 161.78C1224.99 163.074 1228.16 164.302 1231.37 165.462C1243.51 169.854 1256.46 173.528 1270.96 176.698L1272.06 176.935L1276.02 177.779L1277.72 178.132C1278.93 178.383 1280.14 178.633 1281.36 178.88L1284.61 179.529L1287.29 180.055L1290.47 180.67L1293.72 181.287L1296.72 181.85L1301.7 182.767L1306.76 183.686L1315.55 185.261C1330.76 188.017 1342.51 190.512 1353.31 193.271C1366.09 196.535 1378.9 200.916 1391.37 206.296L1393.28 207.296C1394.07 207.714 1394.87 208.127 1395.66 208.549L1396.76 209.148C1397.83 209.721 1398.9 210.295 1399.96 210.877L1401.05 211.481C1402.11 212.063 1403.16 212.645 1404.22 213.235L1405.83 214.145C1406.7 214.638 1407.58 215.131 1408.46 215.631L1411.5 217.379L1413.58 218.581C1417.59 220.91 1421.6 223.279 1425.64 225.672L1525.94 285.656L1510.74 294.079L1417.93 238.574C1407.07 232.071 1395.47 225.191 1383.66 218.814C1371.81 213.302 1359.23 208.355 1346.2 204.094C1333.91 200.782 1320.69 197.614 1305.8 194.412L1300.88 193.35C1289.3 190.845 1277.19 188.152 1265.22 185.138C1251.12 181.586 1238.43 177.624 1226.45 173.02C1213.88 168.191 1201.9 162.394 1190.84 155.789C1179.83 149.234 1169.04 141.41 1158.84 132.644C1149.15 124.308 1139.69 115.062 1129.94 104.379C1121.62 95.2757 1113.59 85.9626 1105.99 77.0478L1100.74 70.8789C1091.69 60.2892 1083.39 50.9743 1075.39 42.4415C1065.62 33.0463 1055.47 24.3331 1045.15 16.509C1034.85 9.6221 1024.47 3.27164 1012.08 -4.14218L918.056 -60.3743L918.358 -77.7154ZM1037.28 -46.2907C1048.53 -39.424 1059.45 -32.5901 1069.44 -24.4722C1079.21 -16.5279 1088.41 -7.13406 1097.55 4.24637L1098.52 5.45554C1105.46 14.1682 1112.62 23.9196 1121.45 36.6695L1126.05 43.3399C1133.77 54.4798 1140.57 64.0888 1147.63 73.4459C1156.74 85.5119 1165.68 95.7794 1174.97 104.835C1176.95 106.768 1178.96 108.626 1181 110.443C1181.49 110.881 1181.98 111.332 1182.48 111.764L1183.4 112.548C1189.51 117.805 1195.85 122.558 1202.37 126.744C1203.39 127.395 1204.41 128.019 1205.43 128.644L1206.6 129.371C1217.71 136.009 1230.04 141.477 1243.27 145.625C1255.67 149.522 1269.02 152.546 1284.07 154.869C1295.87 156.693 1308.07 158.187 1319.23 159.467L1329.2 160.592C1345.44 162.442 1357.92 164.26 1369.42 166.45C1383.89 169.202 1396.62 172.983 1408.34 178.011C1420.88 183.394 1432.7 190.326 1443.13 196.439L1560.38 266.561L1545.18 274.983L1435.41 209.327L1431.82 207.218C1421.16 200.957 1411.26 195.289 1400.78 190.059C1388.12 184.974 1374.98 180.923 1361.72 178.02L1360.2 177.69C1349.53 175.395 1337.9 173.361 1323.08 171.2L1314.26 169.932C1302.84 168.28 1290.16 166.353 1277.73 164.044C1263.07 161.319 1250.02 157.991 1237.82 153.868C1224.93 149.511 1212.81 143.969 1201.8 137.391L1201.55 137.24C1200.96 136.882 1200.37 136.507 1199.78 136.142L1198.35 135.261C1198.11 135.113 1197.87 134.964 1197.63 134.812C1191.62 130.971 1185.73 126.702 1180.03 122.045L1177.79 120.199C1177.41 119.884 1177.05 119.555 1176.67 119.235C1174.51 117.387 1172.38 115.494 1170.28 113.533C1160.9 104.779 1151.83 94.9097 1142.55 83.3602C1134.3 73.0964 1126.17 62.2287 1118.55 51.885L1116.92 49.6769C1106.74 35.83 1098.74 25.5949 1091.01 16.4888C1082.31 6.26041 1072.69 -3.36212 1062.33 -12.1629C1051.43 -20.0193 1040.17 -26.9545 1029.57 -33.3888L918.736 -99.673L919.041 -117.007L1037.28 -46.2907ZM918.703 -211.786L918.484 -199.073L918.467 -199.083L918.083 -177.132L918.088 -177.129L917.404 -137.842L917.408 -137.84L917.105 -120.499L917.101 -120.501L916.717 -98.5508L916.719 -98.5497L916.375 -78.9014L916.378 -78.8993L916.075 -61.5457L916.067 -61.5509L915.684 -39.5986L915.691 -39.594L915.388 -22.2637L915.385 -22.2657L915 -0.315887L995.946 48.0973C1003.13 52.4052 1010.66 56.9502 1018.12 61.523C1029.01 68.6399 1039.76 76.244 1050.04 84.1026C1059.86 92.1387 1069.72 100.622 1080.18 110.031L1082.87 112.508C1091.69 120.597 1100.8 128.962 1109.87 137.062C1120.58 146.639 1130.64 154.998 1140.62 162.62C1150.52 170.183 1160.74 177.189 1171.05 183.47L1173.46 184.921C1184.57 191.562 1196.43 197.744 1208.71 203.293C1220.15 208.464 1232.33 213.385 1245.95 218.335C1254.26 221.352 1262.71 224.33 1271.05 227.243L1284.06 231.784C1297.47 236.623 1309.71 241.356 1321.44 246.241C1333.35 251.686 1345.24 257.666 1356.76 264.001L1359.74 265.756C1367.21 270.151 1374.69 274.609 1382.6 279.333L1459.02 325.034L1476.24 315.487L1476.25 315.492L1495.49 304.824L1495.49 304.823L1512.71 295.279L1512.71 295.277L1529.95 285.718L1529.95 285.717L1547.17 276.173L1547.17 276.172L1562.36 267.747L1562.38 267.757L1581.63 257.087L1581.61 257.076L1596.82 248.652L1596.83 248.659L1616.08 237.98L1616.07 237.973L1631.28 229.538L1631.3 229.547L1642.7 223.228L1642.86 214.279L1642.82 214.259L1643.13 196.933L1643.15 196.945L1643.53 174.994L1643.51 174.983L1643.82 157.636L1643.83 157.646L1644.22 135.694L1644.21 135.691L1644.51 118.357L1644.52 118.359L1644.9 96.4073L1644.89 96.4006L1645.23 76.7653L1515.2 -1.00552C1512.32 -2.5921 1509.44 -4.19095 1506.56 -5.79379L1496.91 -11.1847C1492.42 -13.6846 1487.86 -16.206 1483.31 -18.6705L1480.58 -20.1423C1469.32 -26.1692 1457.34 -32.111 1444.96 -37.8026L1441.35 -39.4456C1432.59 -43.4092 1423.08 -47.55 1411.32 -52.5216L1404.94 -55.214C1395.34 -59.2814 1383.5 -64.3916 1371.85 -69.8591C1359.23 -75.7723 1347.8 -81.8154 1336.91 -88.332C1326.47 -94.5465 1316.23 -101.418 1305.59 -109.265L1304.14 -110.341C1294.15 -117.767 1284.39 -125.489 1276.44 -131.882L1268.5 -138.279C1260.68 -144.565 1251.23 -152.065 1241.65 -159.329C1230.91 -167.473 1220.11 -175.17 1209.55 -182.206C1204.39 -185.638 1199.14 -189.035 1193.96 -192.361L1188.81 -195.661C1184.76 -198.254 1180.72 -200.845 1176.66 -203.478L1045.37 -282L1010.92 -262.904L1010.92 -262.905L957.212 -233.134L957.218 -233.131L942.01 -224.702L942.005 -224.705L918.703 -211.786Z" fill="url(#paint1_linear_0_32)"/>
<defs>
<linearGradient id="paint0_linear_0_32" x1="-3.76635" y1="830.204" x2="284.352" y2="1107.92" gradientUnits="userSpaceOnUse">
<stop stop-color="#5D5DFF" stop-opacity="0.01"/>
<stop offset="1" stop-color="#5D5DFF" stop-opacity="0.32"/>
</linearGradient>
<linearGradient id="paint1_linear_0_32" x1="918.861" y1="48.1379" x2="1226.15" y2="397.031" gradientUnits="userSpaceOnUse">
<stop stop-color="#5D5DFF" stop-opacity="0.01"/>
<stop offset="0.538482" stop-color="#5D5DFF" stop-opacity="0.32"/>
<stop offset="1" stop-color="#5D5DFF" stop-opacity="0.01"/>
</linearGradient>
</defs>
</svg>
